<?xml version="1.0" encoding="UTF-8" standalone="no" ?>
<!DOCTYPE svg PUBLIC "-//W3C//DTD SVG 1.1//EN" "http://www.w3.org/Graphics/SVG/1.1/DTD/svg11.dtd">
<svg xmlns="http://www.w3.org/2000/svg" xmlns:xlink="http://www.w3.org/1999/xlink" version="1.1" width="300" height="300" viewBox="0 0 1080 1080" xml:space="preserve">
<desc>Created with Fabric.js 5.2.4</desc>
<defs>
</defs>
<rect x="0" y="0" width="100%" height="100%" fill="transparent"></rect>
<g transform="matrix(1 0 0 1 540 540)" id="03446980-8ab0-494c-aba6-3267d8f623e9"  >
<rect style="stroke: none; stroke-width: 1; stroke-dasharray: none; stroke-linecap: butt; stroke-dashoffset: 0; stroke-linejoin: miter; stroke-miterlimit: 4; fill: rgb(255,255,255); fill-rule: nonzero; opacity: 1; visibility: hidden;" vector-effect="non-scaling-stroke"  x="-540" y="-540" rx="0" ry="0" width="1080" height="1080" />
</g>
<g transform="matrix(1 0 0 1 540 540)" id="c847bd5d-2197-4408-9115-8ab1c42579ce"  >
</g>
<g transform="matrix(NaN NaN NaN NaN 0 0)"  >
<g style=""   >
</g>
</g>
<g transform="matrix(NaN NaN NaN NaN 0 0)"  >
<g style=""   >
</g>
</g>
<g transform="matrix(5.32 0 0 5.32 145.07 559.41)"  >
<rect style="stroke: none; stroke-width: 1; stroke-dasharray: none; stroke-linecap: butt; stroke-dashoffset: 0; stroke-linejoin: miter; stroke-miterlimit: 4; fill: rgb(19,236,117); fill-rule: nonzero; opacity: 1;" vector-effect="non-scaling-stroke"  x="-25" y="-25" rx="10" ry="10" width="50" height="50" />
</g>
<g transform="matrix(6.59 0 0 6.59 133.67 558.33)"  >
<path style="stroke: none; stroke-width: 1; stroke-dasharray: none; stroke-linecap: butt; stroke-dashoffset: 0; stroke-linejoin: miter; stroke-miterlimit: 4; fill: rgb(255,255,255); fill-rule: nonzero; opacity: 1;" vector-effect="non-scaling-stroke"  transform=" translate(-22.32, -23.98)" d="M 26.0039 9.5625 L 31.8633 9.5625 L 31.8633 29.25 C 31.8633 31.0599 31.4596 32.6615 30.6523 34.0547 C 29.8581 35.4349 28.7318 36.5026 27.2734 37.2578 C 25.8151 38.013 24.168 38.3906 22.332 38.3906 C 19.3242 38.3906 16.9805 37.6289 15.3008 36.1055 C 13.6211 34.569 12.7812 32.401 12.7812 29.6016 L 18.6797 29.6016 C 18.6797 30.9948 18.9727 32.0234 19.5586 32.6875 C 20.1445 33.3516 21.069 33.6836 22.332 33.6836 C 23.4518 33.6836 24.3438 33.2995 25.0078 32.5312 C 25.6719 31.763 26.0039 30.6693 26.0039 29.25 L 26.0039 9.5625 Z" stroke-linecap="round" />
</g>
<g transform="matrix(1 0 0 1 718.87 561.15)" style="" id="3f962310-8b08-49d4-9cf2-5ae0d2cd509d"  >
		<text xml:space="preserve" font-family="Roboto" font-size="138" font-style="normal" font-weight="900" style="stroke: none; stroke-width: 1; stroke-dasharray: none; stroke-linecap: butt; stroke-dashoffset: 0; stroke-linejoin: miter; stroke-miterlimit: 4; fill: rgb(19,236,117); fill-rule: nonzero; opacity: 1; white-space: pre;" ><tspan x="-352.66" y="43.35" >J</tspan><tspan x="-290.01" y="43.35" >o</tspan><tspan x="-210.11" y="43.35" >b</tspan><tspan x="-125.65" y="43.35" style="white-space: pre; "> </tspan><tspan x="-99.43" y="43.35" >H</tspan><tspan x="-0.76" y="43.35" >u</tspan><tspan x="82.46" y="43.35" >n</tspan><tspan x="163.32" y="43.35" >t</tspan><tspan x="216.04" y="43.35" >e</tspan><tspan x="295.25" y="43.35" >r</tspan></text>
</g>
</svg>